<?xml version="1.0" standalone="no"?>
<!DOCTYPE svg PUBLIC "-//W3C//DTD SVG 20010904//EN"
 "http://www.w3.org/TR/2001/REC-SVG-20010904/DTD/svg10.dtd">
<svg version="1.0" xmlns="http://www.w3.org/2000/svg"
 width="1331.000000pt" height="1331.000000pt" viewBox="0 0 1331.000000 1331.000000"
 preserveAspectRatio="xMidYMid meet">
<metadata>
Created by potrace 1.11, written by Peter Selinger 2001-2013
</metadata>
<g transform="translate(0.000000,1331.000000) scale(0.100000,-0.100000)"
fill="#000000" stroke="none">
<path d="M10234 9832 c-10 -2 -125 -112 -254 -244 l-236 -240 -2 82 c-1 71 -5
87 -27 116 -31 41 -54 54 -103 59 -48 5 -100 -20 -129 -64 -22 -33 -23 -41
-23 -260 l-1 -226 -332 -339 c-183 -186 -427 -436 -544 -555 l-211 -216 396
-3 397 -3 199 203 c455 464 915 934 977 998 l67 69 308 -316 c170 -173 356
-364 414 -423 58 -59 198 -203 312 -319 l207 -211 395 0 c218 0 396 2 396 4 0
4 -17 21 -485 500 -165 169 -363 371 -440 451 -167 171 -775 792 -860 878
l-59 60 -171 1 c-94 1 -180 0 -191 -2z"/>
<path d="M10417 8289 c-74 -25 -121 -56 -172 -110 -85 -92 -114 -159 -120
-274 -10 -173 85 -335 238 -408 103 -50 181 -55 322 -23 99 23 223 141 265
253 80 214 -5 429 -215 544 -77 42 -225 50 -318 18z"/>
<path d="M1677 7884 c-1 -1 -38 -5 -82 -9 -245 -21 -492 -107 -683 -237 -100
-68 -105 -71 -202 -169 -405 -406 -526 -1057 -299 -1616 69 -171 159 -303 304
-448 160 -161 329 -264 545 -335 91 -30 113 -35 180 -46 19 -3 41 -7 48 -9 59
-20 382 -24 474 -6 29 5 69 13 88 15 19 3 60 13 90 21 30 9 60 17 65 19 90 22
244 97 359 173 311 207 528 559 586 953 6 41 13 86 16 100 5 34 5 298 0 335
-3 17 -7 47 -10 67 -13 95 -30 170 -58 253 -143 430 -488 761 -918 881 -98 27
-176 41 -270 50 -60 5 -230 11 -233 8z m143 -249 c57 -19 150 -77 200 -126
146 -139 277 -449 315 -739 4 -30 9 -64 11 -75 22 -115 22 -579 -1 -755 -39
-315 -159 -567 -311 -656 -181 -106 -403 -77 -566 75 -67 61 -153 186 -199
287 -31 67 -94 242 -104 287 -2 12 -13 60 -24 107 -20 86 -23 100 -36 180 -4
25 -9 53 -10 62 -27 142 -24 426 6 618 33 212 123 442 223 566 124 155 329
224 496 169z"/>
<path d="M6848 7812 c-684 -2 -868 -5 -869 -15 -2 -27 0 -139 3 -142 2 -2 19
-5 38 -8 104 -15 146 -21 151 -19 3 0 34 -14 69 -31 103 -51 121 -105 89 -261
-38 -187 -231 -861 -362 -1266 -40 -121 -26 -133 -109 90 -27 74 -77 207 -110
295 -33 88 -75 201 -93 250 -18 50 -47 126 -63 170 -53 141 -277 754 -324 888
l-10 28 -141 -3 -140 -3 -18 -60 c-9 -33 -29 -100 -44 -150 -15 -49 -33 -110
-40 -135 -71 -249 -415 -1311 -465 -1435 -11 -28 -15 -20 -71 170 -33 110 -76
254 -95 320 -20 66 -38 127 -39 135 -2 8 -45 155 -95 325 -113 385 -144 509
-136 553 12 78 63 111 206 132 l85 12 0 79 0 79 -662 0 -663 0 -1 -22 c-2 -32
-2 -79 0 -110 1 -24 6 -27 49 -33 209 -30 277 -113 391 -475 140 -442 175
-554 177 -567 2 -14 23 -81 31 -103 3 -8 7 -19 9 -25 6 -21 44 -148 109 -360
37 -121 71 -233 76 -250 6 -25 43 -147 103 -346 8 -26 45 -152 82 -280 36
-129 69 -236 71 -239 2 -2 71 -5 152 -5 l147 0 24 75 c28 90 421 1268 510
1532 35 104 67 185 70 180 11 -12 477 -1262 595 -1596 31 -88 60 -167 65 -176
7 -13 30 -15 147 -14 76 1 141 2 145 3 4 0 12 20 18 44 12 44 52 173 74 242 8
22 23 72 34 110 25 85 233 755 307 990 30 94 86 271 125 395 195 620 237 717
342 791 36 26 124 59 158 59 85 0 186 -73 235 -171 52 -101 52 -112 49 -974
-1 -440 -5 -818 -7 -840 -3 -22 -8 -73 -12 -114 -18 -195 -122 -304 -300 -315
l-30 -2 0 -84 0 -85 510 0 c281 0 520 2 533 4 21 3 22 8 22 82 0 44 -1 79 -2
80 -2 0 -39 3 -83 5 -196 11 -311 83 -343 214 -11 46 -22 153 -28 270 -2 53
-6 1203 -5 1333 l1 38 82 -108 c45 -60 91 -120 102 -134 12 -14 32 -40 46 -59
14 -18 75 -97 135 -176 61 -78 122 -157 135 -175 14 -18 53 -69 88 -113 35
-45 75 -97 90 -116 77 -101 572 -743 612 -795 26 -33 81 -105 123 -160 43 -55
83 -107 90 -115 7 -8 30 -39 52 -68 l39 -52 176 2 175 3 1 1010 c0 556 4 1057
8 1115 18 298 24 333 57 387 11 18 33 41 48 52 34 25 133 58 197 67 27 3 51 8
53 10 7 6 4 140 -3 152 -5 8 -151 11 -531 12 l-525 0 0 -79 0 -79 53 -7 c28
-3 70 -8 92 -11 74 -9 164 -46 204 -85 73 -71 79 -124 87 -744 2 -225 6 -485
8 -578 4 -190 9 -185 -81 -74 -32 40 -101 124 -153 187 -161 194 -464 569
-735 910 -397 499 -401 504 -416 528 -14 22 -39 35 -69 36 -8 1 -405 0 -882
-2z"/>
<path d="M12190 7742 c-121 -72 -403 -237 -457 -267 l-31 -18 0 -131 c0 -72 0
-150 -1 -173 l-1 -43 -97 0 -98 0 -72 -93 c-71 -93 -71 -93 -55 -120 9 -15 23
-27 32 -28 8 -1 77 -1 153 -1 119 0 137 -3 138 -17 0 -9 1 -342 3 -741 2 -702
3 -727 24 -802 30 -110 66 -175 136 -243 107 -105 228 -147 401 -141 115 4
177 22 308 91 89 46 243 139 285 173 l23 18 -31 69 c-17 38 -33 71 -34 73 -2
2 -19 -5 -37 -16 -171 -95 -299 -46 -357 138 -23 73 -25 121 -26 751 l-1 647
197 -4 c168 -2 200 -1 213 12 49 50 63 145 29 202 -21 36 7 32 -272 35 -139 1
-153 3 -158 20 -3 11 -6 158 -6 327 l-1 308 -37 21 c-21 12 -42 21 -46 21 -5
0 -61 -31 -124 -68z"/>
<path d="M10219 7153 c-4 -93 -1 -2142 4 -2149 3 -5 146 -9 334 -9 l328 0 0
1088 0 1087 -332 0 c-310 0 -333 -1 -334 -17z"/>
<path d="M2445 4446 c-159 -49 -254 -176 -251 -337 3 -126 68 -234 175 -293
67 -36 89 -40 196 -40 102 0 171 25 239 85 166 145 140 434 -49 544 -86 51
-219 68 -310 41z m179 -107 c92 -22 166 -121 166 -224 0 -86 -54 -175 -127
-211 -53 -26 -152 -28 -208 -4 -145 62 -183 260 -72 377 63 65 142 86 241 62z"/>
<path d="M8515 4443 c-111 -34 -203 -127 -232 -238 -3 -11 -6 -49 -8 -85 -4
-134 64 -249 187 -311 57 -29 81 -33 183 -33 75 0 99 5 147 26 151 69 223 212
195 385 -15 98 -86 187 -186 235 -56 27 -78 32 -151 34 -52 1 -104 -4 -135
-13z m228 -117 c132 -64 168 -251 71 -365 -45 -52 -96 -75 -173 -78 -149 -5
-245 96 -240 250 3 82 52 157 124 192 61 29 158 29 218 1z"/>
<path d="M12447 4442 c-61 -22 -115 -66 -133 -108 -20 -49 -18 -123 6 -162 32
-52 72 -71 265 -124 65 -18 95 -37 106 -66 23 -61 -29 -104 -129 -107 -75 -2
-114 6 -186 41 -27 13 -51 24 -52 24 -1 0 -10 -21 -20 -46 -17 -45 -17 -47 1
-60 48 -36 131 -57 228 -59 105 -3 139 5 202 45 75 47 109 168 65 234 -31 49
-112 91 -210 112 -14 3 -35 7 -47 10 -102 21 -146 76 -107 132 37 54 158 64
263 22 30 -11 55 -19 56 -18 6 6 35 81 35 89 0 4 -26 18 -57 30 -78 30 -218
35 -286 11z"/>
<path d="M890 4115 l0 -336 63 3 62 3 0 143 -1 142 175 -2 175 -3 -1 -142 0
-143 62 0 62 0 1 335 0 335 -63 0 -63 0 0 -122 c0 -68 -1 -131 -1 -140 -1 -16
-16 -18 -174 -18 l-172 0 0 140 0 140 -62 0 -63 0 0 -335z"/>
<path d="M3620 4115 l0 -335 60 0 60 0 2 218 c3 215 3 217 21 182 10 -19 49
-84 87 -145 38 -60 77 -125 86 -142 9 -18 24 -34 33 -34 9 -1 23 -2 31 -3 9 0
51 59 110 155 52 86 102 167 110 179 14 21 16 5 15 -185 0 -114 3 -211 6 -217
3 -5 30 -8 60 -6 l54 3 0 333 0 332 -52 0 -51 0 -49 -82 c-26 -46 -52 -90 -58
-100 -112 -194 -151 -258 -156 -258 -3 0 -11 10 -17 23 -6 12 -24 43 -39 68
-16 26 -68 114 -118 198 l-90 151 -52 0 -53 0 0 -335z"/>
<path d="M5120 4115 l0 -335 249 0 c271 0 259 -3 256 60 l-2 35 -189 5 -189 5
0 93 -1 92 163 0 163 0 0 50 0 50 -162 2 -163 3 0 88 0 87 182 0 183 0 0 50 0
50 -245 0 -245 0 0 -335z"/>
<path d="M7180 4115 l0 -335 238 0 238 0 0 50 0 50 -176 0 -175 0 0 283 0 282
-62 3 -63 3 0 -336z"/>
<path d="M9890 4441 c0 -5 -13 -38 -29 -73 -16 -35 -52 -115 -81 -178 -28 -63
-60 -133 -70 -155 -10 -22 -29 -65 -43 -95 -13 -30 -34 -76 -46 -102 -11 -26
-21 -49 -21 -52 0 -4 28 -6 63 -6 l63 0 31 78 30 77 170 3 171 2 32 -80 32
-80 64 0 c35 0 64 2 64 4 0 4 -92 209 -184 411 -21 44 -54 118 -74 165 l-38
85 -67 3 c-39 2 -67 -1 -67 -7z m102 -188 c34 -75 88 -204 88 -209 0 -2 -56
-4 -124 -4 l-125 0 61 140 c34 77 63 140 65 140 2 0 18 -30 35 -67z"/>
<path d="M10990 4115 l0 -336 62 3 62 3 0 218 c0 119 3 217 6 216 4 0 82 -94
339 -410 21 -25 30 -29 77 -29 l53 0 0 335 -1 335 -62 0 -62 0 1 -217 c0 -120
-1 -221 -3 -225 -2 -4 -74 79 -160 185 -86 106 -169 208 -184 225 -24 28 -33
32 -77 32 l-51 0 0 -335z"/>
</g>
</svg>
